<?xml version="1.0" encoding="utf-8" standalone="no"?>
<!DOCTYPE svg PUBLIC "-//W3C//DTD SVG 1.1//EN"
  "http://www.w3.org/Graphics/SVG/1.1/DTD/svg11.dtd">
<!-- Created with matplotlib (https://matplotlib.org/) -->
<svg height="242.75875pt" version="1.1" viewBox="0 0 405.371875 242.75875" width="405.371875pt" xmlns="http://www.w3.org/2000/svg" xmlns:xlink="http://www.w3.org/1999/xlink">
 <defs>
  <style type="text/css">
*{stroke-linecap:butt;stroke-linejoin:round;}
  </style>
 </defs>
 <g id="figure_1">
  <g id="patch_1">
   <path d="M 0 242.75875 
L 405.371875 242.75875 
L 405.371875 0 
L 0 0 
z
" style="fill:#ffffff;"/>
  </g>
  <g id="axes_1">
   <g id="patch_2">
    <path d="M 63.371875 197.46 
L 398.171875 197.46 
L 398.171875 7.2 
L 63.371875 7.2 
z
" style="fill:#ffffff;"/>
   </g>
   <g id="PathCollection_1">
    <defs>
     <path d="M 0 1.936492 
C 0.513564 1.936492 1.006162 1.732451 1.369306 1.369306 
C 1.732451 1.006162 1.936492 0.513564 1.936492 0 
C 1.936492 -0.513564 1.732451 -1.006162 1.369306 -1.369306 
C 1.006162 -1.732451 0.513564 -1.936492 0 -1.936492 
C -0.513564 -1.936492 -1.006162 -1.732451 -1.369306 -1.369306 
C -1.732451 -1.006162 -1.936492 -0.513564 -1.936492 0 
C -1.936492 0.513564 -1.732451 1.006162 -1.369306 1.369306 
C -1.006162 1.732451 -0.513564 1.936492 0 1.936492 
z
" id="mdd4398b353" style="stroke:#1f77b4;"/>
    </defs>
    <g clip-path="url(#p5768fd4e07)">
     <use style="fill:#1f77b4;stroke:#1f77b4;" x="80.526474" xlink:href="#mdd4398b353" y="36.951441"/>
     <use style="fill:#1f77b4;stroke:#1f77b4;" x="93.127608" xlink:href="#mdd4398b353" y="34.526559"/>
     <use style="fill:#1f77b4;stroke:#1f77b4;" x="105.728742" xlink:href="#mdd4398b353" y="40.775294"/>
     <use style="fill:#1f77b4;stroke:#1f77b4;" x="118.329876" xlink:href="#mdd4398b353" y="32.288206"/>
     <use style="fill:#1f77b4;stroke:#1f77b4;" x="130.93101" xlink:href="#mdd4398b353" y="42.454059"/>
     <use style="fill:#1f77b4;stroke:#1f77b4;" x="143.532144" xlink:href="#mdd4398b353" y="51.407471"/>
     <use style="fill:#1f77b4;stroke:#1f77b4;" x="156.133278" xlink:href="#mdd4398b353" y="51.500735"/>
     <use style="fill:#1f77b4;stroke:#1f77b4;" x="168.734413" xlink:href="#mdd4398b353" y="63.531882"/>
     <use style="fill:#1f77b4;stroke:#1f77b4;" x="181.335547" xlink:href="#mdd4398b353" y="63.718412"/>
     <use style="fill:#1f77b4;stroke:#1f77b4;" x="193.936681" xlink:href="#mdd4398b353" y="58.402324"/>
     <use style="fill:#1f77b4;stroke:#1f77b4;" x="206.537815" xlink:href="#mdd4398b353" y="61.200265"/>
     <use style="fill:#1f77b4;stroke:#1f77b4;" x="219.138949" xlink:href="#mdd4398b353" y="88.153765"/>
     <use style="fill:#1f77b4;stroke:#1f77b4;" x="231.740083" xlink:href="#mdd4398b353" y="86.475"/>
     <use style="fill:#1f77b4;stroke:#1f77b4;" x="244.341218" xlink:href="#mdd4398b353" y="89.925794"/>
     <use style="fill:#1f77b4;stroke:#1f77b4;" x="256.942352" xlink:href="#mdd4398b353" y="84.143382"/>
     <use style="fill:#1f77b4;stroke:#1f77b4;" x="269.543486" xlink:href="#mdd4398b353" y="89.366206"/>
     <use style="fill:#1f77b4;stroke:#1f77b4;" x="282.14462" xlink:href="#mdd4398b353" y="102.889588"/>
     <use style="fill:#1f77b4;stroke:#1f77b4;" x="294.745754" xlink:href="#mdd4398b353" y="103.169382"/>
     <use style="fill:#1f77b4;stroke:#1f77b4;" x="307.346888" xlink:href="#mdd4398b353" y="103.635706"/>
     <use style="fill:#1f77b4;stroke:#1f77b4;" x="319.948022" xlink:href="#mdd4398b353" y="100.651235"/>
     <use style="fill:#1f77b4;stroke:#1f77b4;" x="332.549157" xlink:href="#mdd4398b353" y="149.988265"/>
     <use style="fill:#1f77b4;stroke:#1f77b4;" x="345.150291" xlink:href="#mdd4398b353" y="117.905206"/>
     <use style="fill:#1f77b4;stroke:#1f77b4;" x="357.751425" xlink:href="#mdd4398b353" y="114.454412"/>
     <use style="fill:#1f77b4;stroke:#1f77b4;" x="370.352559" xlink:href="#mdd4398b353" y="128.537382"/>
    </g>
   </g>
   <g id="PathCollection_2">
    <defs>
     <path d="M 0 1.936492 
C 0.513564 1.936492 1.006162 1.732451 1.369306 1.369306 
C 1.732451 1.006162 1.936492 0.513564 1.936492 0 
C 1.936492 -0.513564 1.732451 -1.006162 1.369306 -1.369306 
C 1.006162 -1.732451 0.513564 -1.936492 0 -1.936492 
C -0.513564 -1.936492 -1.006162 -1.732451 -1.369306 -1.369306 
C -1.732451 -1.006162 -1.936492 -0.513564 -1.936492 0 
C -1.936492 0.513564 -1.732451 1.006162 -1.369306 1.369306 
C -1.006162 1.732451 -0.513564 1.936492 0 1.936492 
z
" id="m6809260633" style="stroke:#ff7f0e;"/>
    </defs>
    <g clip-path="url(#p5768fd4e07)">
     <use style="fill:#ff7f0e;stroke:#ff7f0e;" x="80.526474" xlink:href="#m6809260633" y="18.578294"/>
     <use style="fill:#ff7f0e;stroke:#ff7f0e;" x="93.127608" xlink:href="#m6809260633" y="16.806265"/>
     <use style="fill:#ff7f0e;stroke:#ff7f0e;" x="105.728742" xlink:href="#m6809260633" y="27.251912"/>
     <use style="fill:#ff7f0e;stroke:#ff7f0e;" x="118.329876" xlink:href="#m6809260633" y="20.723382"/>
     <use style="fill:#ff7f0e;stroke:#ff7f0e;" x="130.93101" xlink:href="#m6809260633" y="27.251912"/>
     <use style="fill:#ff7f0e;stroke:#ff7f0e;" x="143.532144" xlink:href="#m6809260633" y="42.640588"/>
     <use style="fill:#ff7f0e;stroke:#ff7f0e;" x="156.133278" xlink:href="#m6809260633" y="49.169118"/>
     <use style="fill:#ff7f0e;stroke:#ff7f0e;" x="168.734413" xlink:href="#m6809260633" y="78.360971"/>
     <use style="fill:#ff7f0e;stroke:#ff7f0e;" x="181.335547" xlink:href="#m6809260633" y="71.832441"/>
     <use style="fill:#ff7f0e;stroke:#ff7f0e;" x="193.936681" xlink:href="#m6809260633" y="70.060412"/>
     <use style="fill:#ff7f0e;stroke:#ff7f0e;" x="206.537815" xlink:href="#m6809260633" y="74.070794"/>
     <use style="fill:#ff7f0e;stroke:#ff7f0e;" x="219.138949" xlink:href="#m6809260633" y="82.184824"/>
     <use style="fill:#ff7f0e;stroke:#ff7f0e;" x="231.740083" xlink:href="#m6809260633" y="117.532147"/>
     <use style="fill:#ff7f0e;stroke:#ff7f0e;" x="244.341218" xlink:href="#m6809260633" y="116.879294"/>
     <use style="fill:#ff7f0e;stroke:#ff7f0e;" x="256.942352" xlink:href="#m6809260633" y="97.480235"/>
     <use style="fill:#ff7f0e;stroke:#ff7f0e;" x="269.543486" xlink:href="#m6809260633" y="120.516618"/>
     <use style="fill:#ff7f0e;stroke:#ff7f0e;" x="282.14462" xlink:href="#m6809260633" y="114.081353"/>
     <use style="fill:#ff7f0e;stroke:#ff7f0e;" x="294.745754" xlink:href="#m6809260633" y="131.335324"/>
     <use style="fill:#ff7f0e;stroke:#ff7f0e;" x="307.346888" xlink:href="#m6809260633" y="152.133353"/>
     <use style="fill:#ff7f0e;stroke:#ff7f0e;" x="319.948022" xlink:href="#m6809260633" y="114.920735"/>
     <use style="fill:#ff7f0e;stroke:#ff7f0e;" x="332.549157" xlink:href="#m6809260633" y="172.465059"/>
     <use style="fill:#ff7f0e;stroke:#ff7f0e;" x="345.150291" xlink:href="#m6809260633" y="180.206029"/>
     <use style="fill:#ff7f0e;stroke:#ff7f0e;" x="357.751425" xlink:href="#m6809260633" y="133.107353"/>
     <use style="fill:#ff7f0e;stroke:#ff7f0e;" x="370.352559" xlink:href="#m6809260633" y="175.542794"/>
    </g>
   </g>
   <g id="PathCollection_3">
    <defs>
     <path d="M 0 1.936492 
C 0.513564 1.936492 1.006162 1.732451 1.369306 1.369306 
C 1.732451 1.006162 1.936492 0.513564 1.936492 0 
C 1.936492 -0.513564 1.732451 -1.006162 1.369306 -1.369306 
C 1.006162 -1.732451 0.513564 -1.936492 0 -1.936492 
C -0.513564 -1.936492 -1.006162 -1.732451 -1.369306 -1.369306 
C -1.732451 -1.006162 -1.936492 -0.513564 -1.936492 0 
C -1.936492 0.513564 -1.732451 1.006162 -1.369306 1.369306 
C -1.006162 1.732451 -0.513564 1.936492 0 1.936492 
z
" id="m26913868d1" style="stroke:#2ca02c;"/>
    </defs>
    <g clip-path="url(#p5768fd4e07)">
     <use style="fill:#2ca02c;stroke:#2ca02c;" x="80.526474" xlink:href="#m26913868d1" y="30.516176"/>
     <use style="fill:#2ca02c;stroke:#2ca02c;" x="93.127608" xlink:href="#m26913868d1" y="33.873706"/>
     <use style="fill:#2ca02c;stroke:#2ca02c;" x="105.728742" xlink:href="#m26913868d1" y="34.619824"/>
     <use style="fill:#2ca02c;stroke:#2ca02c;" x="118.329876" xlink:href="#m26913868d1" y="48.236471"/>
     <use style="fill:#2ca02c;stroke:#2ca02c;" x="130.93101" xlink:href="#m26913868d1" y="47.210559"/>
     <use style="fill:#2ca02c;stroke:#2ca02c;" x="143.532144" xlink:href="#m26913868d1" y="67.822059"/>
     <use style="fill:#2ca02c;stroke:#2ca02c;" x="156.133278" xlink:href="#m26913868d1" y="62.972294"/>
     <use style="fill:#2ca02c;stroke:#2ca02c;" x="168.734413" xlink:href="#m26913868d1" y="76.588941"/>
     <use style="fill:#2ca02c;stroke:#2ca02c;" x="181.335547" xlink:href="#m26913868d1" y="84.8895"/>
     <use style="fill:#2ca02c;stroke:#2ca02c;" x="193.936681" xlink:href="#m26913868d1" y="90.298853"/>
     <use style="fill:#2ca02c;stroke:#2ca02c;" x="206.537815" xlink:href="#m26913868d1" y="96.081265"/>
     <use style="fill:#2ca02c;stroke:#2ca02c;" x="219.138949" xlink:href="#m26913868d1" y="108.672"/>
     <use style="fill:#2ca02c;stroke:#2ca02c;" x="231.740083" xlink:href="#m26913868d1" y="122.102118"/>
     <use style="fill:#2ca02c;stroke:#2ca02c;" x="244.341218" xlink:href="#m26913868d1" y="110.2575"/>
     <use style="fill:#2ca02c;stroke:#2ca02c;" x="256.942352" xlink:href="#m26913868d1" y="112.589118"/>
     <use style="fill:#2ca02c;stroke:#2ca02c;" x="269.543486" xlink:href="#m26913868d1" y="126.578824"/>
     <use style="fill:#2ca02c;stroke:#2ca02c;" x="282.14462" xlink:href="#m26913868d1" y="122.9415"/>
     <use style="fill:#2ca02c;stroke:#2ca02c;" x="294.745754" xlink:href="#m26913868d1" y="148.122971"/>
     <use style="fill:#2ca02c;stroke:#2ca02c;" x="307.346888" xlink:href="#m26913868d1" y="137.211"/>
     <use style="fill:#2ca02c;stroke:#2ca02c;" x="319.948022" xlink:href="#m26913868d1" y="143.273206"/>
     <use style="fill:#2ca02c;stroke:#2ca02c;" x="332.549157" xlink:href="#m26913868d1" y="187.294147"/>
     <use style="fill:#2ca02c;stroke:#2ca02c;" x="345.150291" xlink:href="#m26913868d1" y="163.325118"/>
     <use style="fill:#2ca02c;stroke:#2ca02c;" x="357.751425" xlink:href="#m26913868d1" y="143.366471"/>
     <use style="fill:#2ca02c;stroke:#2ca02c;" x="370.352559" xlink:href="#m26913868d1" y="180.579088"/>
    </g>
   </g>
   <g id="matplotlib.axis_1">
    <g id="xtick_1">
     <g id="line2d_1">
      <defs>
       <path d="M 0 0 
L 0 3.5 
" id="mc3b9f417e5" style="stroke:#000000;stroke-width:0.8;"/>
      </defs>
      <g>
       <use style="stroke:#000000;stroke-width:0.8;" x="118.329876" xlink:href="#mc3b9f417e5" y="197.46"/>
      </g>
     </g>
     <g id="text_1">
      <!-- 5 -->
      <defs>
       <path d="M 10.796875 72.90625 
L 49.515625 72.90625 
L 49.515625 64.59375 
L 19.828125 64.59375 
L 19.828125 46.734375 
Q 21.96875 47.46875 24.109375 47.828125 
Q 26.265625 48.1875 28.421875 48.1875 
Q 40.625 48.1875 47.75 41.5 
Q 54.890625 34.8125 54.890625 23.390625 
Q 54.890625 11.625 47.5625 5.09375 
Q 40.234375 -1.421875 26.90625 -1.421875 
Q 22.3125 -1.421875 17.546875 -0.640625 
Q 12.796875 0.140625 7.71875 1.703125 
L 7.71875 11.625 
Q 12.109375 9.234375 16.796875 8.0625 
Q 21.484375 6.890625 26.703125 6.890625 
Q 35.15625 6.890625 40.078125 11.328125 
Q 45.015625 15.765625 45.015625 23.390625 
Q 45.015625 31 40.078125 35.4375 
Q 35.15625 39.890625 26.703125 39.890625 
Q 22.75 39.890625 18.8125 39.015625 
Q 14.890625 38.140625 10.796875 36.28125 
z
" id="DejaVuSans-53"/>
      </defs>
      <g transform="translate(113.876126 215.097812)scale(0.14 -0.14)">
       <use xlink:href="#DejaVuSans-53"/>
      </g>
     </g>
    </g>
    <g id="xtick_2">
     <g id="line2d_2">
      <g>
       <use style="stroke:#000000;stroke-width:0.8;" x="181.335547" xlink:href="#mc3b9f417e5" y="197.46"/>
      </g>
     </g>
     <g id="text_2">
      <!-- 10 -->
      <defs>
       <path d="M 12.40625 8.296875 
L 28.515625 8.296875 
L 28.515625 63.921875 
L 10.984375 60.40625 
L 10.984375 69.390625 
L 28.421875 72.90625 
L 38.28125 72.90625 
L 38.28125 8.296875 
L 54.390625 8.296875 
L 54.390625 0 
L 12.40625 0 
z
" id="DejaVuSans-49"/>
       <path d="M 31.78125 66.40625 
Q 24.171875 66.40625 20.328125 58.90625 
Q 16.5 51.421875 16.5 36.375 
Q 16.5 21.390625 20.328125 13.890625 
Q 24.171875 6.390625 31.78125 6.390625 
Q 39.453125 6.390625 43.28125 13.890625 
Q 47.125 21.390625 47.125 36.375 
Q 47.125 51.421875 43.28125 58.90625 
Q 39.453125 66.40625 31.78125 66.40625 
z
M 31.78125 74.21875 
Q 44.046875 74.21875 50.515625 64.515625 
Q 56.984375 54.828125 56.984375 36.375 
Q 56.984375 17.96875 50.515625 8.265625 
Q 44.046875 -1.421875 31.78125 -1.421875 
Q 19.53125 -1.421875 13.0625 8.265625 
Q 6.59375 17.96875 6.59375 36.375 
Q 6.59375 54.828125 13.0625 64.515625 
Q 19.53125 74.21875 31.78125 74.21875 
z
" id="DejaVuSans-48"/>
      </defs>
      <g transform="translate(172.428047 215.097812)scale(0.14 -0.14)">
       <use xlink:href="#DejaVuSans-49"/>
       <use x="63.623047" xlink:href="#DejaVuSans-48"/>
      </g>
     </g>
    </g>
    <g id="xtick_3">
     <g id="line2d_3">
      <g>
       <use style="stroke:#000000;stroke-width:0.8;" x="244.341218" xlink:href="#mc3b9f417e5" y="197.46"/>
      </g>
     </g>
     <g id="text_3">
      <!-- 15 -->
      <g transform="translate(235.433718 215.097812)scale(0.14 -0.14)">
       <use xlink:href="#DejaVuSans-49"/>
       <use x="63.623047" xlink:href="#DejaVuSans-53"/>
      </g>
     </g>
    </g>
    <g id="xtick_4">
     <g id="line2d_4">
      <g>
       <use style="stroke:#000000;stroke-width:0.8;" x="307.346888" xlink:href="#mc3b9f417e5" y="197.46"/>
      </g>
     </g>
     <g id="text_4">
      <!-- 20 -->
      <defs>
       <path d="M 19.1875 8.296875 
L 53.609375 8.296875 
L 53.609375 0 
L 7.328125 0 
L 7.328125 8.296875 
Q 12.9375 14.109375 22.625 23.890625 
Q 32.328125 33.6875 34.8125 36.53125 
Q 39.546875 41.84375 41.421875 45.53125 
Q 43.3125 49.21875 43.3125 52.78125 
Q 43.3125 58.59375 39.234375 62.25 
Q 35.15625 65.921875 28.609375 65.921875 
Q 23.96875 65.921875 18.8125 64.3125 
Q 13.671875 62.703125 7.8125 59.421875 
L 7.8125 69.390625 
Q 13.765625 71.78125 18.9375 73 
Q 24.125 74.21875 28.421875 74.21875 
Q 39.75 74.21875 46.484375 68.546875 
Q 53.21875 62.890625 53.21875 53.421875 
Q 53.21875 48.921875 51.53125 44.890625 
Q 49.859375 40.875 45.40625 35.40625 
Q 44.1875 33.984375 37.640625 27.21875 
Q 31.109375 20.453125 19.1875 8.296875 
z
" id="DejaVuSans-50"/>
      </defs>
      <g transform="translate(298.439388 215.097812)scale(0.14 -0.14)">
       <use xlink:href="#DejaVuSans-50"/>
       <use x="63.623047" xlink:href="#DejaVuSans-48"/>
      </g>
     </g>
    </g>
    <g id="xtick_5">
     <g id="line2d_5">
      <g>
       <use style="stroke:#000000;stroke-width:0.8;" x="370.352559" xlink:href="#mc3b9f417e5" y="197.46"/>
      </g>
     </g>
     <g id="text_5">
      <!-- 25 -->
      <g transform="translate(361.445059 215.097812)scale(0.14 -0.14)">
       <use xlink:href="#DejaVuSans-50"/>
       <use x="63.623047" xlink:href="#DejaVuSans-53"/>
      </g>
     </g>
    </g>
    <g id="text_6">
     <!-- K (number of unitaries applied) -->
     <defs>
      <path d="M 9.8125 72.90625 
L 19.671875 72.90625 
L 19.671875 42.09375 
L 52.390625 72.90625 
L 65.09375 72.90625 
L 28.90625 38.921875 
L 67.671875 0 
L 54.6875 0 
L 19.671875 35.109375 
L 19.671875 0 
L 9.8125 0 
z
" id="DejaVuSans-75"/>
      <path id="DejaVuSans-32"/>
      <path d="M 31 75.875 
Q 24.46875 64.65625 21.28125 53.65625 
Q 18.109375 42.671875 18.109375 31.390625 
Q 18.109375 20.125 21.3125 9.0625 
Q 24.515625 -2 31 -13.1875 
L 23.1875 -13.1875 
Q 15.875 -1.703125 12.234375 9.375 
Q 8.59375 20.453125 8.59375 31.390625 
Q 8.59375 42.28125 12.203125 53.3125 
Q 15.828125 64.359375 23.1875 75.875 
z
" id="DejaVuSans-40"/>
      <path d="M 54.890625 33.015625 
L 54.890625 0 
L 45.90625 0 
L 45.90625 32.71875 
Q 45.90625 40.484375 42.875 44.328125 
Q 39.84375 48.1875 33.796875 48.1875 
Q 26.515625 48.1875 22.3125 43.546875 
Q 18.109375 38.921875 18.109375 30.90625 
L 18.109375 0 
L 9.078125 0 
L 9.078125 54.6875 
L 18.109375 54.6875 
L 18.109375 46.1875 
Q 21.34375 51.125 25.703125 53.5625 
Q 30.078125 56 35.796875 56 
Q 45.21875 56 50.046875 50.171875 
Q 54.890625 44.34375 54.890625 33.015625 
z
" id="DejaVuSans-110"/>
      <path d="M 8.5 21.578125 
L 8.5 54.6875 
L 17.484375 54.6875 
L 17.484375 21.921875 
Q 17.484375 14.15625 20.5 10.265625 
Q 23.53125 6.390625 29.59375 6.390625 
Q 36.859375 6.390625 41.078125 11.03125 
Q 45.3125 15.671875 45.3125 23.6875 
L 45.3125 54.6875 
L 54.296875 54.6875 
L 54.296875 0 
L 45.3125 0 
L 45.3125 8.40625 
Q 42.046875 3.421875 37.71875 1 
Q 33.40625 -1.421875 27.6875 -1.421875 
Q 18.265625 -1.421875 13.375 4.4375 
Q 8.5 10.296875 8.5 21.578125 
z
M 31.109375 56 
z
" id="DejaVuSans-117"/>
      <path d="M 52 44.1875 
Q 55.375 50.25 60.0625 53.125 
Q 64.75 56 71.09375 56 
Q 79.640625 56 84.28125 50.015625 
Q 88.921875 44.046875 88.921875 33.015625 
L 88.921875 0 
L 79.890625 0 
L 79.890625 32.71875 
Q 79.890625 40.578125 77.09375 44.375 
Q 74.3125 48.1875 68.609375 48.1875 
Q 61.625 48.1875 57.5625 43.546875 
Q 53.515625 38.921875 53.515625 30.90625 
L 53.515625 0 
L 44.484375 0 
L 44.484375 32.71875 
Q 44.484375 40.625 41.703125 44.40625 
Q 38.921875 48.1875 33.109375 48.1875 
Q 26.21875 48.1875 22.15625 43.53125 
Q 18.109375 38.875 18.109375 30.90625 
L 18.109375 0 
L 9.078125 0 
L 9.078125 54.6875 
L 18.109375 54.6875 
L 18.109375 46.1875 
Q 21.1875 51.21875 25.484375 53.609375 
Q 29.78125 56 35.6875 56 
Q 41.65625 56 45.828125 52.96875 
Q 50 49.953125 52 44.1875 
z
" id="DejaVuSans-109"/>
      <path d="M 48.6875 27.296875 
Q 48.6875 37.203125 44.609375 42.84375 
Q 40.53125 48.484375 33.40625 48.484375 
Q 26.265625 48.484375 22.1875 42.84375 
Q 18.109375 37.203125 18.109375 27.296875 
Q 18.109375 17.390625 22.1875 11.75 
Q 26.265625 6.109375 33.40625 6.109375 
Q 40.53125 6.109375 44.609375 11.75 
Q 48.6875 17.390625 48.6875 27.296875 
z
M 18.109375 46.390625 
Q 20.953125 51.265625 25.265625 53.625 
Q 29.59375 56 35.59375 56 
Q 45.5625 56 51.78125 48.09375 
Q 58.015625 40.1875 58.015625 27.296875 
Q 58.015625 14.40625 51.78125 6.484375 
Q 45.5625 -1.421875 35.59375 -1.421875 
Q 29.59375 -1.421875 25.265625 0.953125 
Q 20.953125 3.328125 18.109375 8.203125 
L 18.109375 0 
L 9.078125 0 
L 9.078125 75.984375 
L 18.109375 75.984375 
z
" id="DejaVuSans-98"/>
      <path d="M 56.203125 29.59375 
L 56.203125 25.203125 
L 14.890625 25.203125 
Q 15.484375 15.921875 20.484375 11.0625 
Q 25.484375 6.203125 34.421875 6.203125 
Q 39.59375 6.203125 44.453125 7.46875 
Q 49.3125 8.734375 54.109375 11.28125 
L 54.109375 2.78125 
Q 49.265625 0.734375 44.1875 -0.34375 
Q 39.109375 -1.421875 33.890625 -1.421875 
Q 20.796875 -1.421875 13.15625 6.1875 
Q 5.515625 13.8125 5.515625 26.8125 
Q 5.515625 40.234375 12.765625 48.109375 
Q 20.015625 56 32.328125 56 
Q 43.359375 56 49.78125 48.890625 
Q 56.203125 41.796875 56.203125 29.59375 
z
M 47.21875 32.234375 
Q 47.125 39.59375 43.09375 43.984375 
Q 39.0625 48.390625 32.421875 48.390625 
Q 24.90625 48.390625 20.390625 44.140625 
Q 15.875 39.890625 15.1875 32.171875 
z
" id="DejaVuSans-101"/>
      <path d="M 41.109375 46.296875 
Q 39.59375 47.171875 37.8125 47.578125 
Q 36.03125 48 33.890625 48 
Q 26.265625 48 22.1875 43.046875 
Q 18.109375 38.09375 18.109375 28.8125 
L 18.109375 0 
L 9.078125 0 
L 9.078125 54.6875 
L 18.109375 54.6875 
L 18.109375 46.1875 
Q 20.953125 51.171875 25.484375 53.578125 
Q 30.03125 56 36.53125 56 
Q 37.453125 56 38.578125 55.875 
Q 39.703125 55.765625 41.0625 55.515625 
z
" id="DejaVuSans-114"/>
      <path d="M 30.609375 48.390625 
Q 23.390625 48.390625 19.1875 42.75 
Q 14.984375 37.109375 14.984375 27.296875 
Q 14.984375 17.484375 19.15625 11.84375 
Q 23.34375 6.203125 30.609375 6.203125 
Q 37.796875 6.203125 41.984375 11.859375 
Q 46.1875 17.53125 46.1875 27.296875 
Q 46.1875 37.015625 41.984375 42.703125 
Q 37.796875 48.390625 30.609375 48.390625 
z
M 30.609375 56 
Q 42.328125 56 49.015625 48.375 
Q 55.71875 40.765625 55.71875 27.296875 
Q 55.71875 13.875 49.015625 6.21875 
Q 42.328125 -1.421875 30.609375 -1.421875 
Q 18.84375 -1.421875 12.171875 6.21875 
Q 5.515625 13.875 5.515625 27.296875 
Q 5.515625 40.765625 12.171875 48.375 
Q 18.84375 56 30.609375 56 
z
" id="DejaVuSans-111"/>
      <path d="M 37.109375 75.984375 
L 37.109375 68.5 
L 28.515625 68.5 
Q 23.6875 68.5 21.796875 66.546875 
Q 19.921875 64.59375 19.921875 59.515625 
L 19.921875 54.6875 
L 34.71875 54.6875 
L 34.71875 47.703125 
L 19.921875 47.703125 
L 19.921875 0 
L 10.890625 0 
L 10.890625 47.703125 
L 2.296875 47.703125 
L 2.296875 54.6875 
L 10.890625 54.6875 
L 10.890625 58.5 
Q 10.890625 67.625 15.140625 71.796875 
Q 19.390625 75.984375 28.609375 75.984375 
z
" id="DejaVuSans-102"/>
      <path d="M 9.421875 54.6875 
L 18.40625 54.6875 
L 18.40625 0 
L 9.421875 0 
z
M 9.421875 75.984375 
L 18.40625 75.984375 
L 18.40625 64.59375 
L 9.421875 64.59375 
z
" id="DejaVuSans-105"/>
      <path d="M 18.3125 70.21875 
L 18.3125 54.6875 
L 36.8125 54.6875 
L 36.8125 47.703125 
L 18.3125 47.703125 
L 18.3125 18.015625 
Q 18.3125 11.328125 20.140625 9.421875 
Q 21.96875 7.515625 27.59375 7.515625 
L 36.8125 7.515625 
L 36.8125 0 
L 27.59375 0 
Q 17.1875 0 13.234375 3.875 
Q 9.28125 7.765625 9.28125 18.015625 
L 9.28125 47.703125 
L 2.6875 47.703125 
L 2.6875 54.6875 
L 9.28125 54.6875 
L 9.28125 70.21875 
z
" id="DejaVuSans-116"/>
      <path d="M 34.28125 27.484375 
Q 23.390625 27.484375 19.1875 25 
Q 14.984375 22.515625 14.984375 16.5 
Q 14.984375 11.71875 18.140625 8.90625 
Q 21.296875 6.109375 26.703125 6.109375 
Q 34.1875 6.109375 38.703125 11.40625 
Q 43.21875 16.703125 43.21875 25.484375 
L 43.21875 27.484375 
z
M 52.203125 31.203125 
L 52.203125 0 
L 43.21875 0 
L 43.21875 8.296875 
Q 40.140625 3.328125 35.546875 0.953125 
Q 30.953125 -1.421875 24.3125 -1.421875 
Q 15.921875 -1.421875 10.953125 3.296875 
Q 6 8.015625 6 15.921875 
Q 6 25.140625 12.171875 29.828125 
Q 18.359375 34.515625 30.609375 34.515625 
L 43.21875 34.515625 
L 43.21875 35.40625 
Q 43.21875 41.609375 39.140625 45 
Q 35.0625 48.390625 27.6875 48.390625 
Q 23 48.390625 18.546875 47.265625 
Q 14.109375 46.140625 10.015625 43.890625 
L 10.015625 52.203125 
Q 14.9375 54.109375 19.578125 55.046875 
Q 24.21875 56 28.609375 56 
Q 40.484375 56 46.34375 49.84375 
Q 52.203125 43.703125 52.203125 31.203125 
z
" id="DejaVuSans-97"/>
      <path d="M 44.28125 53.078125 
L 44.28125 44.578125 
Q 40.484375 46.53125 36.375 47.5 
Q 32.28125 48.484375 27.875 48.484375 
Q 21.1875 48.484375 17.84375 46.4375 
Q 14.5 44.390625 14.5 40.28125 
Q 14.5 37.15625 16.890625 35.375 
Q 19.28125 33.59375 26.515625 31.984375 
L 29.59375 31.296875 
Q 39.15625 29.25 43.1875 25.515625 
Q 47.21875 21.78125 47.21875 15.09375 
Q 47.21875 7.46875 41.1875 3.015625 
Q 35.15625 -1.421875 24.609375 -1.421875 
Q 20.21875 -1.421875 15.453125 -0.5625 
Q 10.6875 0.296875 5.421875 2 
L 5.421875 11.28125 
Q 10.40625 8.6875 15.234375 7.390625 
Q 20.0625 6.109375 24.8125 6.109375 
Q 31.15625 6.109375 34.5625 8.28125 
Q 37.984375 10.453125 37.984375 14.40625 
Q 37.984375 18.0625 35.515625 20.015625 
Q 33.0625 21.96875 24.703125 23.78125 
L 21.578125 24.515625 
Q 13.234375 26.265625 9.515625 29.90625 
Q 5.8125 33.546875 5.8125 39.890625 
Q 5.8125 47.609375 11.28125 51.796875 
Q 16.75 56 26.8125 56 
Q 31.78125 56 36.171875 55.265625 
Q 40.578125 54.546875 44.28125 53.078125 
z
" id="DejaVuSans-115"/>
      <path d="M 18.109375 8.203125 
L 18.109375 -20.796875 
L 9.078125 -20.796875 
L 9.078125 54.6875 
L 18.109375 54.6875 
L 18.109375 46.390625 
Q 20.953125 51.265625 25.265625 53.625 
Q 29.59375 56 35.59375 56 
Q 45.5625 56 51.78125 48.09375 
Q 58.015625 40.1875 58.015625 27.296875 
Q 58.015625 14.40625 51.78125 6.484375 
Q 45.5625 -1.421875 35.59375 -1.421875 
Q 29.59375 -1.421875 25.265625 0.953125 
Q 20.953125 3.328125 18.109375 8.203125 
z
M 48.6875 27.296875 
Q 48.6875 37.203125 44.609375 42.84375 
Q 40.53125 48.484375 33.40625 48.484375 
Q 26.265625 48.484375 22.1875 42.84375 
Q 18.109375 37.203125 18.109375 27.296875 
Q 18.109375 17.390625 22.1875 11.75 
Q 26.265625 6.109375 33.40625 6.109375 
Q 40.53125 6.109375 44.609375 11.75 
Q 48.6875 17.390625 48.6875 27.296875 
z
" id="DejaVuSans-112"/>
      <path d="M 9.421875 75.984375 
L 18.40625 75.984375 
L 18.40625 0 
L 9.421875 0 
z
" id="DejaVuSans-108"/>
      <path d="M 45.40625 46.390625 
L 45.40625 75.984375 
L 54.390625 75.984375 
L 54.390625 0 
L 45.40625 0 
L 45.40625 8.203125 
Q 42.578125 3.328125 38.25 0.953125 
Q 33.9375 -1.421875 27.875 -1.421875 
Q 17.96875 -1.421875 11.734375 6.484375 
Q 5.515625 14.40625 5.515625 27.296875 
Q 5.515625 40.1875 11.734375 48.09375 
Q 17.96875 56 27.875 56 
Q 33.9375 56 38.25 53.625 
Q 42.578125 51.265625 45.40625 46.390625 
z
M 14.796875 27.296875 
Q 14.796875 17.390625 18.875 11.75 
Q 22.953125 6.109375 30.078125 6.109375 
Q 37.203125 6.109375 41.296875 11.75 
Q 45.40625 17.390625 45.40625 27.296875 
Q 45.40625 37.203125 41.296875 42.84375 
Q 37.203125 48.484375 30.078125 48.484375 
Q 22.953125 48.484375 18.875 42.84375 
Q 14.796875 37.203125 14.796875 27.296875 
z
" id="DejaVuSans-100"/>
      <path d="M 8.015625 75.875 
L 15.828125 75.875 
Q 23.140625 64.359375 26.78125 53.3125 
Q 30.421875 42.28125 30.421875 31.390625 
Q 30.421875 20.453125 26.78125 9.375 
Q 23.140625 -1.703125 15.828125 -13.1875 
L 8.015625 -13.1875 
Q 14.5 -2 17.703125 9.0625 
Q 20.90625 20.125 20.90625 31.390625 
Q 20.90625 42.671875 17.703125 53.65625 
Q 14.5 64.65625 8.015625 75.875 
z
" id="DejaVuSans-41"/>
     </defs>
     <g transform="translate(121.308281 232.647187)scale(0.14 -0.14)">
      <use xlink:href="#DejaVuSans-75"/>
      <use x="65.576172" xlink:href="#DejaVuSans-32"/>
      <use x="97.363281" xlink:href="#DejaVuSans-40"/>
      <use x="136.376953" xlink:href="#DejaVuSans-110"/>
      <use x="199.755859" xlink:href="#DejaVuSans-117"/>
      <use x="263.134766" xlink:href="#DejaVuSans-109"/>
      <use x="360.546875" xlink:href="#DejaVuSans-98"/>
      <use x="424.023438" xlink:href="#DejaVuSans-101"/>
      <use x="485.546875" xlink:href="#DejaVuSans-114"/>
      <use x="526.660156" xlink:href="#DejaVuSans-32"/>
      <use x="558.447266" xlink:href="#DejaVuSans-111"/>
      <use x="619.628906" xlink:href="#DejaVuSans-102"/>
      <use x="654.833984" xlink:href="#DejaVuSans-32"/>
      <use x="686.621094" xlink:href="#DejaVuSans-117"/>
      <use x="750" xlink:href="#DejaVuSans-110"/>
      <use x="813.378906" xlink:href="#DejaVuSans-105"/>
      <use x="841.162109" xlink:href="#DejaVuSans-116"/>
      <use x="880.371094" xlink:href="#DejaVuSans-97"/>
      <use x="941.650391" xlink:href="#DejaVuSans-114"/>
      <use x="982.763672" xlink:href="#DejaVuSans-105"/>
      <use x="1010.546875" xlink:href="#DejaVuSans-101"/>
      <use x="1072.070312" xlink:href="#DejaVuSans-115"/>
      <use x="1124.169922" xlink:href="#DejaVuSans-32"/>
      <use x="1155.957031" xlink:href="#DejaVuSans-97"/>
      <use x="1217.236328" xlink:href="#DejaVuSans-112"/>
      <use x="1280.712891" xlink:href="#DejaVuSans-112"/>
      <use x="1344.189453" xlink:href="#DejaVuSans-108"/>
      <use x="1371.972656" xlink:href="#DejaVuSans-105"/>
      <use x="1399.755859" xlink:href="#DejaVuSans-101"/>
      <use x="1461.279297" xlink:href="#DejaVuSans-100"/>
      <use x="1524.755859" xlink:href="#DejaVuSans-41"/>
     </g>
    </g>
   </g>
   <g id="matplotlib.axis_2">
    <g id="ytick_1">
     <g id="line2d_6">
      <defs>
       <path d="M 0 0 
L -3.5 0 
" id="mf6fa8845d3" style="stroke:#000000;stroke-width:0.8;"/>
      </defs>
      <g>
       <use style="stroke:#000000;stroke-width:0.8;" x="63.371875" xlink:href="#mf6fa8845d3" y="167.615294"/>
      </g>
     </g>
     <g id="text_7">
      <!-- 0.92 -->
      <defs>
       <path d="M 10.6875 12.40625 
L 21 12.40625 
L 21 0 
L 10.6875 0 
z
" id="DejaVuSans-46"/>
       <path d="M 10.984375 1.515625 
L 10.984375 10.5 
Q 14.703125 8.734375 18.5 7.8125 
Q 22.3125 6.890625 25.984375 6.890625 
Q 35.75 6.890625 40.890625 13.453125 
Q 46.046875 20.015625 46.78125 33.40625 
Q 43.953125 29.203125 39.59375 26.953125 
Q 35.25 24.703125 29.984375 24.703125 
Q 19.046875 24.703125 12.671875 31.3125 
Q 6.296875 37.9375 6.296875 49.421875 
Q 6.296875 60.640625 12.9375 67.421875 
Q 19.578125 74.21875 30.609375 74.21875 
Q 43.265625 74.21875 49.921875 64.515625 
Q 56.59375 54.828125 56.59375 36.375 
Q 56.59375 19.140625 48.40625 8.859375 
Q 40.234375 -1.421875 26.421875 -1.421875 
Q 22.703125 -1.421875 18.890625 -0.6875 
Q 15.09375 0.046875 10.984375 1.515625 
z
M 30.609375 32.421875 
Q 37.25 32.421875 41.125 36.953125 
Q 45.015625 41.5 45.015625 49.421875 
Q 45.015625 57.28125 41.125 61.84375 
Q 37.25 66.40625 30.609375 66.40625 
Q 23.96875 66.40625 20.09375 61.84375 
Q 16.21875 57.28125 16.21875 49.421875 
Q 16.21875 41.5 20.09375 36.953125 
Q 23.96875 32.421875 30.609375 32.421875 
z
" id="DejaVuSans-57"/>
      </defs>
      <g transform="translate(25.2 172.9342)scale(0.14 -0.14)">
       <use xlink:href="#DejaVuSans-48"/>
       <use x="63.623047" xlink:href="#DejaVuSans-46"/>
       <use x="95.410156" xlink:href="#DejaVuSans-57"/>
       <use x="159.033203" xlink:href="#DejaVuSans-50"/>
      </g>
     </g>
    </g>
    <g id="ytick_2">
     <g id="line2d_7">
      <g>
       <use style="stroke:#000000;stroke-width:0.8;" x="63.371875" xlink:href="#mf6fa8845d3" y="130.309412"/>
      </g>
     </g>
     <g id="text_8">
      <!-- 0.93 -->
      <defs>
       <path d="M 40.578125 39.3125 
Q 47.65625 37.796875 51.625 33 
Q 55.609375 28.21875 55.609375 21.1875 
Q 55.609375 10.40625 48.1875 4.484375 
Q 40.765625 -1.421875 27.09375 -1.421875 
Q 22.515625 -1.421875 17.65625 -0.515625 
Q 12.796875 0.390625 7.625 2.203125 
L 7.625 11.71875 
Q 11.71875 9.328125 16.59375 8.109375 
Q 21.484375 6.890625 26.8125 6.890625 
Q 36.078125 6.890625 40.9375 10.546875 
Q 45.796875 14.203125 45.796875 21.1875 
Q 45.796875 27.640625 41.28125 31.265625 
Q 36.765625 34.90625 28.71875 34.90625 
L 20.21875 34.90625 
L 20.21875 43.015625 
L 29.109375 43.015625 
Q 36.375 43.015625 40.234375 45.921875 
Q 44.09375 48.828125 44.09375 54.296875 
Q 44.09375 59.90625 40.109375 62.90625 
Q 36.140625 65.921875 28.71875 65.921875 
Q 24.65625 65.921875 20.015625 65.03125 
Q 15.375 64.15625 9.8125 62.3125 
L 9.8125 71.09375 
Q 15.4375 72.65625 20.34375 73.4375 
Q 25.25 74.21875 29.59375 74.21875 
Q 40.828125 74.21875 47.359375 69.109375 
Q 53.90625 64.015625 53.90625 55.328125 
Q 53.90625 49.265625 50.4375 45.09375 
Q 46.96875 40.921875 40.578125 39.3125 
z
" id="DejaVuSans-51"/>
      </defs>
      <g transform="translate(25.2 135.628318)scale(0.14 -0.14)">
       <use xlink:href="#DejaVuSans-48"/>
       <use x="63.623047" xlink:href="#DejaVuSans-46"/>
       <use x="95.410156" xlink:href="#DejaVuSans-57"/>
       <use x="159.033203" xlink:href="#DejaVuSans-51"/>
      </g>
     </g>
    </g>
    <g id="ytick_3">
     <g id="line2d_8">
      <g>
       <use style="stroke:#000000;stroke-width:0.8;" x="63.371875" xlink:href="#mf6fa8845d3" y="93.003529"/>
      </g>
     </g>
     <g id="text_9">
      <!-- 0.94 -->
      <defs>
       <path d="M 37.796875 64.3125 
L 12.890625 25.390625 
L 37.796875 25.390625 
z
M 35.203125 72.90625 
L 47.609375 72.90625 
L 47.609375 25.390625 
L 58.015625 25.390625 
L 58.015625 17.1875 
L 47.609375 17.1875 
L 47.609375 0 
L 37.796875 0 
L 37.796875 17.1875 
L 4.890625 17.1875 
L 4.890625 26.703125 
z
" id="DejaVuSans-52"/>
      </defs>
      <g transform="translate(25.2 98.322436)scale(0.14 -0.14)">
       <use xlink:href="#DejaVuSans-48"/>
       <use x="63.623047" xlink:href="#DejaVuSans-46"/>
       <use x="95.410156" xlink:href="#DejaVuSans-57"/>
       <use x="159.033203" xlink:href="#DejaVuSans-52"/>
      </g>
     </g>
    </g>
    <g id="ytick_4">
     <g id="line2d_9">
      <g>
       <use style="stroke:#000000;stroke-width:0.8;" x="63.371875" xlink:href="#mf6fa8845d3" y="55.697647"/>
      </g>
     </g>
     <g id="text_10">
      <!-- 0.95 -->
      <g transform="translate(25.2 61.016553)scale(0.14 -0.14)">
       <use xlink:href="#DejaVuSans-48"/>
       <use x="63.623047" xlink:href="#DejaVuSans-46"/>
       <use x="95.410156" xlink:href="#DejaVuSans-57"/>
       <use x="159.033203" xlink:href="#DejaVuSans-53"/>
      </g>
     </g>
    </g>
    <g id="ytick_5">
     <g id="line2d_10">
      <g>
       <use style="stroke:#000000;stroke-width:0.8;" x="63.371875" xlink:href="#mf6fa8845d3" y="18.391765"/>
      </g>
     </g>
     <g id="text_11">
      <!-- 0.96 -->
      <defs>
       <path d="M 33.015625 40.375 
Q 26.375 40.375 22.484375 35.828125 
Q 18.609375 31.296875 18.609375 23.390625 
Q 18.609375 15.53125 22.484375 10.953125 
Q 26.375 6.390625 33.015625 6.390625 
Q 39.65625 6.390625 43.53125 10.953125 
Q 47.40625 15.53125 47.40625 23.390625 
Q 47.40625 31.296875 43.53125 35.828125 
Q 39.65625 40.375 33.015625 40.375 
z
M 52.59375 71.296875 
L 52.59375 62.3125 
Q 48.875 64.0625 45.09375 64.984375 
Q 41.3125 65.921875 37.59375 65.921875 
Q 27.828125 65.921875 22.671875 59.328125 
Q 17.53125 52.734375 16.796875 39.40625 
Q 19.671875 43.65625 24.015625 45.921875 
Q 28.375 48.1875 33.59375 48.1875 
Q 44.578125 48.1875 50.953125 41.515625 
Q 57.328125 34.859375 57.328125 23.390625 
Q 57.328125 12.15625 50.6875 5.359375 
Q 44.046875 -1.421875 33.015625 -1.421875 
Q 20.359375 -1.421875 13.671875 8.265625 
Q 6.984375 17.96875 6.984375 36.375 
Q 6.984375 53.65625 15.1875 63.9375 
Q 23.390625 74.21875 37.203125 74.21875 
Q 40.921875 74.21875 44.703125 73.484375 
Q 48.484375 72.75 52.59375 71.296875 
z
" id="DejaVuSans-54"/>
      </defs>
      <g transform="translate(25.2 23.710671)scale(0.14 -0.14)">
       <use xlink:href="#DejaVuSans-48"/>
       <use x="63.623047" xlink:href="#DejaVuSans-46"/>
       <use x="95.410156" xlink:href="#DejaVuSans-57"/>
       <use x="159.033203" xlink:href="#DejaVuSans-54"/>
      </g>
     </g>
    </g>
    <g id="text_12">
     <!-- Prob of |0&gt; -->
     <defs>
      <path d="M 19.671875 64.796875 
L 19.671875 37.40625 
L 32.078125 37.40625 
Q 38.96875 37.40625 42.71875 40.96875 
Q 46.484375 44.53125 46.484375 51.125 
Q 46.484375 57.671875 42.71875 61.234375 
Q 38.96875 64.796875 32.078125 64.796875 
z
M 9.8125 72.90625 
L 32.078125 72.90625 
Q 44.34375 72.90625 50.609375 67.359375 
Q 56.890625 61.8125 56.890625 51.125 
Q 56.890625 40.328125 50.609375 34.8125 
Q 44.34375 29.296875 32.078125 29.296875 
L 19.671875 29.296875 
L 19.671875 0 
L 9.8125 0 
z
" id="DejaVuSans-80"/>
      <path d="M 21 76.421875 
L 21 -23.578125 
L 12.703125 -23.578125 
L 12.703125 76.421875 
z
" id="DejaVuSans-124"/>
      <path d="M 10.59375 49.21875 
L 10.59375 58.109375 
L 73.1875 35.40625 
L 73.1875 27.296875 
L 10.59375 4.59375 
L 10.59375 13.484375 
L 60.890625 31.296875 
z
" id="DejaVuSans-62"/>
     </defs>
     <g transform="translate(17.899063 142.026562)rotate(-90)scale(0.14 -0.14)">
      <use xlink:href="#DejaVuSans-80"/>
      <use x="60.287109" xlink:href="#DejaVuSans-114"/>
      <use x="101.369141" xlink:href="#DejaVuSans-111"/>
      <use x="162.550781" xlink:href="#DejaVuSans-98"/>
      <use x="226.027344" xlink:href="#DejaVuSans-32"/>
      <use x="257.814453" xlink:href="#DejaVuSans-111"/>
      <use x="318.996094" xlink:href="#DejaVuSans-102"/>
      <use x="354.201172" xlink:href="#DejaVuSans-32"/>
      <use x="385.988281" xlink:href="#DejaVuSans-124"/>
      <use x="419.679688" xlink:href="#DejaVuSans-48"/>
      <use x="483.302734" xlink:href="#DejaVuSans-62"/>
     </g>
    </g>
   </g>
   <g id="line2d_11">
    <path clip-path="url(#p5768fd4e07)" d="M 80.526474 20.524654 
L 83.581294 21.732263 
L 86.636114 22.93948 
L 89.690935 24.146306 
L 92.745755 25.352739 
L 95.800576 26.558782 
L 98.855396 27.764432 
L 101.910216 28.969692 
L 104.965037 30.17456 
L 108.019857 31.379037 
L 111.074678 32.583124 
L 114.129498 33.786819 
L 117.184318 34.990124 
L 120.239139 36.193038 
L 123.293959 37.395562 
L 126.34878 38.597695 
L 129.4036 39.799438 
L 132.45842 41.000792 
L 135.513241 42.201755 
L 138.568061 43.402328 
L 141.622882 44.602512 
L 144.677702 45.802306 
L 147.732522 47.001711 
L 150.787343 48.200727 
L 153.842163 49.399353 
L 156.896984 50.59759 
L 159.951804 51.795439 
L 163.006624 52.992899 
L 166.061445 54.18997 
L 169.116265 55.386652 
L 172.171086 56.582946 
L 175.225906 57.778852 
L 178.280726 58.974369 
L 181.335547 60.169499 
L 184.390367 61.36424 
L 187.445188 62.558594 
L 190.500008 63.752561 
L 193.554828 64.946139 
L 196.609649 66.13933 
L 199.664469 67.332134 
L 202.71929 68.524551 
L 205.77411 69.716581 
L 208.82893 70.908224 
L 211.883751 72.09948 
L 214.938571 73.29035 
L 217.993392 74.480833 
L 221.048212 75.670929 
L 224.103032 76.86064 
L 227.157853 78.049964 
L 230.212673 79.238902 
L 233.267494 80.427454 
L 236.322314 81.61562 
L 239.377134 82.803401 
L 242.431955 83.990797 
L 245.486775 85.177806 
L 248.541596 86.364431 
L 251.596416 87.550671 
L 254.651236 88.736525 
L 257.706057 89.921995 
L 260.760877 91.107079 
L 263.815698 92.291779 
L 266.870518 93.476095 
L 269.925338 94.660026 
L 272.980159 95.843573 
L 276.034979 97.026736 
L 279.0898 98.209515 
L 282.14462 99.39191 
L 285.19944 100.573921 
L 288.254261 101.755548 
L 291.309081 102.936792 
L 294.363902 104.117653 
L 297.418722 105.29813 
L 300.473542 106.478224 
L 303.528363 107.657935 
L 306.583183 108.837263 
L 309.638004 110.016209 
L 312.692824 111.194772 
L 315.747644 112.372952 
L 318.802465 113.55075 
L 321.857285 114.728165 
L 324.912106 115.905199 
L 327.966926 117.08185 
L 331.021746 118.258119 
L 334.076567 119.434007 
L 337.131387 120.609513 
L 340.186208 121.784637 
L 343.241028 122.95938 
L 346.295848 124.133742 
L 349.350669 125.307723 
L 352.405489 126.481322 
L 355.46031 127.654541 
L 358.51513 128.827379 
L 361.56995 129.999836 
L 364.624771 131.171912 
L 367.679591 132.343609 
L 370.734412 133.514925 
L 373.789232 134.68586 
L 376.844052 135.856416 
L 379.898873 137.026592 
L 382.953693 138.196388 
" style="fill:none;stroke:#1f77b4;stroke-linecap:square;stroke-width:1.5;"/>
   </g>
   <g id="line2d_12">
    <path clip-path="url(#p5768fd4e07)" d="M 80.526474 23.186699 
L 83.581294 24.715882 
L 86.636114 26.244437 
L 89.690935 27.772362 
L 92.745755 29.29966 
L 95.800576 30.826329 
L 98.855396 32.35237 
L 101.910216 33.877783 
L 104.965037 35.402569 
L 108.019857 36.926728 
L 111.074678 38.45026 
L 114.129498 39.973166 
L 117.184318 41.495445 
L 120.239139 43.017098 
L 123.293959 44.538125 
L 126.34878 46.058526 
L 129.4036 47.578303 
L 132.45842 49.097454 
L 135.513241 50.61598 
L 138.568061 52.133882 
L 141.622882 53.651159 
L 144.677702 55.167812 
L 147.732522 56.683842 
L 150.787343 58.199248 
L 153.842163 59.714031 
L 156.896984 61.22819 
L 159.951804 62.741727 
L 163.006624 64.254642 
L 166.061445 65.766934 
L 169.116265 67.278604 
L 172.171086 68.789652 
L 175.225906 70.300079 
L 178.280726 71.809885 
L 181.335547 73.31907 
L 184.390367 74.827634 
L 187.445188 76.335577 
L 190.500008 77.842901 
L 193.554828 79.349604 
L 196.609649 80.855688 
L 199.664469 82.361152 
L 202.71929 83.865997 
L 205.77411 85.370223 
L 208.82893 86.87383 
L 211.883751 88.376819 
L 214.938571 89.87919 
L 217.993392 91.380943 
L 221.048212 92.882078 
L 224.103032 94.382596 
L 227.157853 95.882496 
L 230.212673 97.38178 
L 233.267494 98.880447 
L 236.322314 100.378498 
L 239.377134 101.875932 
L 242.431955 103.372751 
L 245.486775 104.868954 
L 248.541596 106.364541 
L 251.596416 107.859514 
L 254.651236 109.353871 
L 257.706057 110.847614 
L 260.760877 112.340743 
L 263.815698 113.833257 
L 266.870518 115.325158 
L 269.925338 116.816445 
L 272.980159 118.307118 
L 276.034979 119.797179 
L 279.0898 121.286627 
L 282.14462 122.775462 
L 285.19944 124.263684 
L 288.254261 125.751295 
L 291.309081 127.238294 
L 294.363902 128.724681 
L 297.418722 130.210456 
L 300.473542 131.695621 
L 303.528363 133.180175 
L 306.583183 134.664118 
L 309.638004 136.147451 
L 312.692824 137.630174 
L 315.747644 139.112287 
L 318.802465 140.59379 
L 321.857285 142.074684 
L 324.912106 143.554969 
L 327.966926 145.034645 
L 331.021746 146.513713 
L 334.076567 147.992172 
L 337.131387 149.470023 
L 340.186208 150.947267 
L 343.241028 152.423902 
L 346.295848 153.899931 
L 349.350669 155.375352 
L 352.405489 156.850166 
L 355.46031 158.324374 
L 358.51513 159.797976 
L 361.56995 161.270971 
L 364.624771 162.743361 
L 367.679591 164.215145 
L 370.734412 165.686323 
L 373.789232 167.156897 
L 376.844052 168.626865 
L 379.898873 170.09623 
L 382.953693 171.564989 
" style="fill:none;stroke:#ff7f0e;stroke-linecap:square;stroke-width:1.5;"/>
   </g>
   <g id="line2d_13">
    <path clip-path="url(#p5768fd4e07)" d="M 80.526474 24.311605 
L 83.581294 25.976599 
L 86.636114 27.640846 
L 89.690935 29.304349 
L 92.745755 30.967106 
L 95.800576 32.629118 
L 98.855396 34.290386 
L 101.910216 35.950909 
L 104.965037 37.610689 
L 108.019857 39.269725 
L 111.074678 40.928018 
L 114.129498 42.585568 
L 117.184318 44.242376 
L 120.239139 45.898441 
L 123.293959 47.553765 
L 126.34878 49.208347 
L 129.4036 50.862188 
L 132.45842 52.515288 
L 135.513241 54.167647 
L 138.568061 55.819267 
L 141.622882 57.470146 
L 144.677702 59.120286 
L 147.732522 60.769687 
L 150.787343 62.418349 
L 153.842163 64.066272 
L 156.896984 65.713457 
L 159.951804 67.359904 
L 163.006624 69.005614 
L 166.061445 70.650586 
L 169.116265 72.294822 
L 172.171086 73.938321 
L 175.225906 75.581084 
L 178.280726 77.223111 
L 181.335547 78.864402 
L 184.390367 80.504958 
L 187.445188 82.144779 
L 190.500008 83.783866 
L 193.554828 85.422218 
L 196.609649 87.059837 
L 199.664469 88.696722 
L 202.71929 90.332873 
L 205.77411 91.968292 
L 208.82893 93.602978 
L 211.883751 95.236932 
L 214.938571 96.870154 
L 217.993392 98.502644 
L 221.048212 100.134403 
L 224.103032 101.765431 
L 227.157853 103.395728 
L 230.212673 105.025295 
L 233.267494 106.654132 
L 236.322314 108.28224 
L 239.377134 109.909618 
L 242.431955 111.536267 
L 245.486775 113.162187 
L 248.541596 114.787379 
L 251.596416 116.411843 
L 254.651236 118.035579 
L 257.706057 119.658588 
L 260.760877 121.28087 
L 263.815698 122.902425 
L 266.870518 124.523254 
L 269.925338 126.143357 
L 272.980159 127.762734 
L 276.034979 129.381385 
L 279.0898 130.999312 
L 282.14462 132.616513 
L 285.19944 134.232991 
L 288.254261 135.848744 
L 291.309081 137.463773 
L 294.363902 139.078079 
L 297.418722 140.691662 
L 300.473542 142.304521 
L 303.528363 143.916659 
L 306.583183 145.528074 
L 309.638004 147.138767 
L 312.692824 148.748739 
L 315.747644 150.35799 
L 318.802465 151.96652 
L 321.857285 153.574329 
L 324.912106 155.181418 
L 327.966926 156.787787 
L 331.021746 158.393436 
L 334.076567 159.998366 
L 337.131387 161.602578 
L 340.186208 163.20607 
L 343.241028 164.808844 
L 346.295848 166.410901 
L 349.350669 168.012239 
L 352.405489 169.612861 
L 355.46031 171.212765 
L 358.51513 172.811953 
L 361.56995 174.410424 
L 364.624771 176.008179 
L 367.679591 177.605218 
L 370.734412 179.201542 
L 373.789232 180.797151 
L 376.844052 182.392046 
L 379.898873 183.986225 
L 382.953693 185.579691 
" style="fill:none;stroke:#2ca02c;stroke-linecap:square;stroke-width:1.5;"/>
   </g>
   <g id="patch_3">
    <path d="M 63.371875 197.46 
L 63.371875 7.2 
" style="fill:none;stroke:#000000;stroke-linecap:square;stroke-linejoin:miter;stroke-width:0.8;"/>
   </g>
   <g id="patch_4">
    <path d="M 398.171875 197.46 
L 398.171875 7.2 
" style="fill:none;stroke:#000000;stroke-linecap:square;stroke-linejoin:miter;stroke-width:0.8;"/>
   </g>
   <g id="patch_5">
    <path d="M 63.371875 197.46 
L 398.171875 197.46 
" style="fill:none;stroke:#000000;stroke-linecap:square;stroke-linejoin:miter;stroke-width:0.8;"/>
   </g>
   <g id="patch_6">
    <path d="M 63.371875 7.2 
L 398.171875 7.2 
" style="fill:none;stroke:#000000;stroke-linecap:square;stroke-linejoin:miter;stroke-width:0.8;"/>
   </g>
   <g id="legend_1">
    <g id="patch_7">
     <path d="M 238.114687 80.048125 
L 388.371875 80.048125 
Q 391.171875 80.048125 391.171875 77.248125 
L 391.171875 17 
Q 391.171875 14.2 388.371875 14.2 
L 238.114687 14.2 
Q 235.314687 14.2 235.314687 17 
L 235.314687 77.248125 
Q 235.314687 80.048125 238.114687 80.048125 
z
" style="fill:#ffffff;opacity:0.8;stroke:#cccccc;stroke-linejoin:miter;"/>
    </g>
    <g id="line2d_14">
     <path d="M 240.914687 25.537812 
L 268.914687 25.537812 
" style="fill:none;stroke:#1f77b4;stroke-linecap:square;stroke-width:1.5;"/>
    </g>
    <g id="line2d_15"/>
    <g id="text_13">
     <!-- optimized -->
     <defs>
      <path d="M 5.515625 54.6875 
L 48.1875 54.6875 
L 48.1875 46.484375 
L 14.40625 7.171875 
L 48.1875 7.171875 
L 48.1875 0 
L 4.296875 0 
L 4.296875 8.203125 
L 38.09375 47.515625 
L 5.515625 47.515625 
z
" id="DejaVuSans-122"/>
     </defs>
     <g transform="translate(280.114687 30.437812)scale(0.14 -0.14)">
      <use xlink:href="#DejaVuSans-111"/>
      <use x="61.181641" xlink:href="#DejaVuSans-112"/>
      <use x="124.658203" xlink:href="#DejaVuSans-116"/>
      <use x="163.867188" xlink:href="#DejaVuSans-105"/>
      <use x="191.650391" xlink:href="#DejaVuSans-109"/>
      <use x="289.0625" xlink:href="#DejaVuSans-105"/>
      <use x="316.845703" xlink:href="#DejaVuSans-122"/>
      <use x="369.335938" xlink:href="#DejaVuSans-101"/>
      <use x="430.859375" xlink:href="#DejaVuSans-100"/>
     </g>
    </g>
    <g id="line2d_16">
     <path d="M 240.914687 46.087187 
L 268.914687 46.087187 
" style="fill:none;stroke:#ff7f0e;stroke-linecap:square;stroke-width:1.5;"/>
    </g>
    <g id="line2d_17"/>
    <g id="text_14">
     <!-- optimized-slow -->
     <defs>
      <path d="M 4.890625 31.390625 
L 31.203125 31.390625 
L 31.203125 23.390625 
L 4.890625 23.390625 
z
" id="DejaVuSans-45"/>
      <path d="M 4.203125 54.6875 
L 13.1875 54.6875 
L 24.421875 12.015625 
L 35.59375 54.6875 
L 46.1875 54.6875 
L 57.421875 12.015625 
L 68.609375 54.6875 
L 77.59375 54.6875 
L 63.28125 0 
L 52.6875 0 
L 40.921875 44.828125 
L 29.109375 0 
L 18.5 0 
z
" id="DejaVuSans-119"/>
     </defs>
     <g transform="translate(280.114687 50.987187)scale(0.14 -0.14)">
      <use xlink:href="#DejaVuSans-111"/>
      <use x="61.181641" xlink:href="#DejaVuSans-112"/>
      <use x="124.658203" xlink:href="#DejaVuSans-116"/>
      <use x="163.867188" xlink:href="#DejaVuSans-105"/>
      <use x="191.650391" xlink:href="#DejaVuSans-109"/>
      <use x="289.0625" xlink:href="#DejaVuSans-105"/>
      <use x="316.845703" xlink:href="#DejaVuSans-122"/>
      <use x="369.335938" xlink:href="#DejaVuSans-101"/>
      <use x="430.859375" xlink:href="#DejaVuSans-100"/>
      <use x="494.335938" xlink:href="#DejaVuSans-45"/>
      <use x="530.419922" xlink:href="#DejaVuSans-115"/>
      <use x="582.519531" xlink:href="#DejaVuSans-108"/>
      <use x="610.302734" xlink:href="#DejaVuSans-111"/>
      <use x="671.484375" xlink:href="#DejaVuSans-119"/>
     </g>
    </g>
    <g id="line2d_18">
     <path d="M 240.914687 66.636562 
L 268.914687 66.636562 
" style="fill:none;stroke:#2ca02c;stroke-linecap:square;stroke-width:1.5;"/>
    </g>
    <g id="line2d_19"/>
    <g id="text_15">
     <!-- standard -->
     <g transform="translate(280.114687 71.536562)scale(0.14 -0.14)">
      <use xlink:href="#DejaVuSans-115"/>
      <use x="52.099609" xlink:href="#DejaVuSans-116"/>
      <use x="91.308594" xlink:href="#DejaVuSans-97"/>
      <use x="152.587891" xlink:href="#DejaVuSans-110"/>
      <use x="215.966797" xlink:href="#DejaVuSans-100"/>
      <use x="279.443359" xlink:href="#DejaVuSans-97"/>
      <use x="340.722656" xlink:href="#DejaVuSans-114"/>
      <use x="381.820312" xlink:href="#DejaVuSans-100"/>
     </g>
    </g>
   </g>
  </g>
 </g>
 <defs>
  <clipPath id="p5768fd4e07">
   <rect height="190.26" width="334.8" x="63.371875" y="7.2"/>
  </clipPath>
 </defs>
</svg>
